<svg xmlns="http://www.w3.org/2000/svg" style="display: none;">
    <symbol id="default" viewBox="0 0 28 28">
        <path fill="currentColor" d="M27.14 15.75H14.92l8.62 8.62c0.33 0.33 0.87 0.35 1.21 0.04 2.11-1.99 3.56-4.68 3.99-7.71 0.07-0.52-0.36-0.98-0.88-0.98zM26.46 11.93C26.02 5.66 21.01 0.65 14.85 0.003c-0.5-0.03-0.94 0.42-0.94 0.91v12.18h12.22c0.5 0 0.92-0.42 0.89-0.93zM11.55 15.75V2.77c0-0.5-0.44-0.91-0.94-0.84C4.48 2.81-0.21 8.48 0.07 15.23c0.23 6.78 6.39 12.62 13.53 12.52 2.81-0.04 5.41-0.94 7.54-2.45 0.44-0.31 0.47-0.96 0.09-1.34L11.55 15.75z"/>
    </symbol>
	<symbol id="fav" viewBox="0 0 32 32">
		     <path fill="currentColor" d="M32,12.244 L20.962,10.56 L16,0 L11.038,10.56 L0,12.244 L7.985,20.42 L6.095,32 L16,26.53 L25.905,32 L24.015,20.42 L32,12.244"/>
    </symbol>
    <symbol id="see-password" viewBox="0 0 28 28">
        <path clip-rule="evenodd" fill="currentColor" fill-rule="evenodd" d="M17.7469 15.4149C17.9855 14.8742 18.1188 14.2724 18.1188 14.0016C18.1188 11.6544 16.2952 9.7513 14.046 9.7513C11.7969 9.7513 9.97332 11.6544 9.97332 14.0016C9.97332 16.3487 12.0097 17.8886 14.046 17.8886C15.3486 17.8886 16.508 17.2515 17.2517 16.2595C17.4466 16.0001 17.6137 15.7168 17.7469 15.4149ZM14.046 15.7635C14.5551 15.7635 15.0205 15.5684 15.3784 15.2457C15.81 14.8566 16 14.2807 16 14.0016C16 12.828 15.1716 11.8764 14.046 11.8764C12.9205 11.8764 12 12.8264 12 14C12 14.8104 12.9205 15.7635 14.046 15.7635Z"/>
        <path clip-rule="evenodd" fill="currentColor" fill-rule="evenodd" d="M1.09212 14.2724C1.07621 14.2527 1.10803 14.2931 1.09212 14.2724C0.96764 14.1021 0.970773 13.8996 1.09268 13.7273C1.10161 13.7147 1.11071 13.7016 1.11993 13.6882C4.781 8.34319 9.32105 5.5 14.0142 5.5C18.7025 5.5 23.2385 8.33554 26.8956 13.6698C26.965 13.771 27 13.875 27 13.9995C27 14.1301 26.9593 14.2399 26.8863 14.3461C23.2302 19.6702 18.6982 22.5 14.0142 22.5C9.30912 22.5 4.75717 19.6433 1.09212 14.2724ZM3.93909 13.3525C3.6381 13.7267 3.6381 14.2722 3.93908 14.6465C7.07417 18.5443 10.6042 20.3749 14.0142 20.3749C17.4243 20.3749 20.9543 18.5443 24.0894 14.6465C24.3904 14.2722 24.3904 13.7267 24.0894 13.3525C20.9543 9.45475 17.4243 7.62513 14.0142 7.62513C10.6042 7.62513 7.07417 9.45475 3.93909 13.3525Z"/>
    </symbol>
    <symbol id="hide-password" viewBox="0 0 28 28">
        <path clip-rule="evenodd" fill="currentColor" fill-rule="evenodd" d="M22.6928 1.55018C22.3102 1.32626 21.8209 1.45915 21.6 1.84698L19.1533 6.14375C17.4864 5.36351 15.7609 4.96457 14.0142 4.96457C9.32104 4.96457 4.781 7.84644 1.11993 13.2641L1.10541 13.2854L1.09271 13.3038C0.970762 13.4784 0.967649 13.6837 1.0921 13.8563C3.79364 17.8691 6.97705 20.4972 10.3484 21.6018L8.39935 25.0222C8.1784 25.4101 8.30951 25.906 8.69214 26.1299L9.03857 26.3326C9.4212 26.5565 9.91046 26.4237 10.1314 26.0358L23.332 2.86058C23.553 2.47275 23.4219 1.97684 23.0392 1.75291L22.6928 1.55018ZM18.092 8.00705C16.7353 7.40974 15.3654 7.1186 14.0142 7.1186C10.6042 7.1186 7.07416 8.97311 3.93908 12.9239C3.63812 13.3032 3.63812 13.8561 3.93908 14.2354C6.28912 17.197 8.86102 18.9811 11.438 19.689L12.7855 17.3232C11.2462 16.8322 9.97333 15.4627 9.97333 13.5818C9.97333 11.2026 11.7969 9.27368 14.046 9.27368C15.0842 9.27368 16.0317 9.68468 16.7511 10.3612L18.092 8.00705ZM15.639 12.3137C15.2926 11.7767 14.7231 11.4277 14.046 11.4277C12.9205 11.4277 12 12.3906 12 13.5802C12 14.3664 12.8432 15.2851 13.9024 15.3624L15.639 12.3137Z"/>
        <path clip-rule="evenodd" fill="currentColor" fill-rule="evenodd" d="M14.6873 22.1761C19.1311 21.9148 23.4056 19.0687 26.8864 13.931C26.9593 13.8234 27 13.7121 27 13.5797C27 13.4535 26.965 13.3481 26.8956 13.2455C25.5579 11.2677 24.1025 9.62885 22.5652 8.34557L21.506 10.2052C22.3887 10.9653 23.2531 11.87 24.0894 12.9239C24.3904 13.3032 24.3904 13.8561 24.0894 14.2354C21.5676 17.4135 18.7903 19.2357 16.0254 19.827L14.6873 22.1761Z"/>
    </symbol> 
    <symbol id="notification" viewBox="0 0 448 448">
        <g transform="translate(224 224)">
            <g transform="translate(0, 0)  scale(0.750, 0.750)  rotate(0 0 0)">
                <path fill="currentColor" d="M224 512c35.32 0 63.97-28.65 63.97-64H160.03c0 35.35 28.65 64 63.97 64zm215.39-149.71c-19.32-20.76-55.47-51.99-55.47-154.29 0-77.7-54.48-139.9-127.94-155.16V32c0-17.67-14.32-32-31.98-32s-31.98 14.33-31.98 32v20.84C118.56 68.1 64.08 130.3 64.08 208c0 102.3-36.15 133.53-55.47 154.29-6 6.45-8.66 14.16-8.61 21.71.11 16.4 12.98 32 32.1 32h383.8c19.12 0 32-15.6 32.1-32 .05-7.55-2.61-15.27-8.61-21.71z" transform="translate(-224 -256)"></path>
            </g>
        </g>
    </symbol>
    <symbol id="upload" viewBox="0 0 512 512">
        <path fill="currentColor" d="M32 384v96h448v-96zm192-64h64V192h96L256 32 128 192h96z"></path>
    </symbol>
    <symbol id="download" viewBox="0 0 512 512">
        <path fill="currentColor" d="M32 384v96h448v-96zM288 32h-64v128h-96l128 160 128-160h-96z"></path>
    </symbol>
</svg>